# xmcd
#
# Track frame offsets:
#	150
#	13808
#	24529
#	35472
#	47065
#	58995
#	70365
#	81670
#	91229
#	103461
#
# Disc length: 1506 seconds
#
# Revision: 1
# Processed by: cddbd v1.5.2PL0 Copyright (c) Steve Scherf et al.
# Submitted via: audiograbber 1.83.01
#
DISCID=8f05e00a
DTITLE=Dolly Parton and Porter Wagoner - Once More
DYEAR=1970
DGENRE=Country
TTITLE0=Daddy Was an Old Time Preacher Man
TTITLE1=I Know You're Married But I Love You Still
TTITLE2=Thoughtfulness
TTITLE3=Fight and Scratch
TTITLE4=Before Our Weakness Gets Too Strong
TTITLE5=Once More
TTITLE6=One Day At a Time
TTITLE7=Ragged Angel
TTITLE8=A Good Understanding
TTITLE9=Let's Live For Tonight
EXTD=
EXTT0=
EXTT1=
EXTT2=
EXTT3=
EXTT4=
EXTT5=
EXTT6=
EXTT7=
EXTT8=
EXTT9=
PLAYORDER=
